<svg width="30" height="30" viewBox="0 0 30 30" fill="none" xmlns="http://www.w3.org/2000/svg">
<path d="M15.0702 0.512205C15.8161 0.512205 16.5314 0.755844 17.0589 1.18952C17.5863 1.6232 17.8827 2.21139 17.8827 2.82471V21.1397L25.2702 15.0655C25.8033 14.6571 26.5085 14.4347 27.2371 14.4453C27.9657 14.4558 28.6609 14.6985 29.1762 15.1222C29.6915 15.5459 29.9867 16.1175 29.9996 16.7166C30.0124 17.3157 29.742 17.8955 29.2452 18.3339L17.0577 28.3547C16.5303 28.7878 15.8155 29.031 15.0702 29.031C14.3248 29.031 13.61 28.7878 13.0827 28.3547L0.895156 18.3339C0.618831 18.1222 0.397197 17.8669 0.243478 17.5832C0.0897577 17.2995 0.00710065 16.9933 0.000437707 16.6828C-0.00622523 16.3723 0.0632417 16.0639 0.204696 15.7759C0.346149 15.488 0.556692 15.2264 0.823762 15.0068C1.09083 14.7872 1.40896 14.6141 1.75917 14.4978C2.10937 14.3815 2.48448 14.3244 2.86212 14.3299C3.23975 14.3354 3.61218 14.4033 3.95717 14.5297C4.30217 14.6561 4.61267 14.8383 4.87016 15.0655L12.2577 21.1397V2.82471C12.2577 1.54821 13.5177 0.512205 15.0702 0.512205Z" fill="#0F69BD"/>
</svg>
