<svg width="23" height="28" viewBox="0 0 23 28" fill="none" xmlns="http://www.w3.org/2000/svg">
<path d="M11.3333 20.8756C10.5819 20.8756 9.86122 20.6007 9.32986 20.1113C8.79851 19.622 8.5 18.9582 8.5 18.2662C8.5 16.8179 9.76083 15.6567 11.3333 15.6567C12.0848 15.6567 12.8054 15.9316 13.3368 16.421C13.8682 16.9104 14.1667 17.5741 14.1667 18.2662C14.1667 18.9582 13.8682 19.622 13.3368 20.1113C12.8054 20.6007 12.0848 20.8756 11.3333 20.8756ZM19.8333 24.7898V11.7425H2.83333V24.7898H19.8333ZM19.8333 9.13309C20.5848 9.13309 21.3054 9.40801 21.8368 9.89738C22.3682 10.3867 22.6667 11.0505 22.6667 11.7425V24.7898C22.6667 25.4819 22.3682 26.1456 21.8368 26.635C21.3054 27.1243 20.5848 27.3993 19.8333 27.3993H2.83333C2.08189 27.3993 1.36122 27.1243 0.829864 26.635C0.298511 26.1456 0 25.4819 0 24.7898V11.7425C0 10.2943 1.26083 9.13309 2.83333 9.13309H4.25V6.52363C4.25 4.79346 4.99628 3.13415 6.32466 1.91073C7.65304 0.68731 9.45472 0 11.3333 0C12.2635 0 13.1846 0.168739 14.044 0.496582C14.9034 0.824425 15.6843 1.30495 16.342 1.91073C16.9998 2.5165 17.5215 3.23566 17.8775 4.02715C18.2335 4.81863 18.4167 5.66694 18.4167 6.52363V9.13309H19.8333ZM11.3333 2.60945C10.2062 2.60945 9.12516 3.02184 8.32813 3.75589C7.5311 4.48994 7.08333 5.48553 7.08333 6.52363V9.13309H15.5833V6.52363C15.5833 5.48553 15.1356 4.48994 14.3385 3.75589C13.5415 3.02184 12.4605 2.60945 11.3333 2.60945Z" fill="#D2AD2C"/>
</svg>
