<svg width="33" height="35" viewBox="0 0 33 35" fill="none" xmlns="http://www.w3.org/2000/svg">
<path d="M5.5 29.1666C4.74375 29.1666 4.09658 28.8813 3.5585 28.3106C3.0195 27.7389 2.75 27.0521 2.75 26.25V8.74998C2.75 7.9479 3.0195 7.26151 3.5585 6.69081C4.09658 6.11915 4.74375 5.83331 5.5 5.83331H27.5C28.2563 5.83331 28.9039 6.11915 29.4429 6.69081C29.981 7.26151 30.25 7.9479 30.25 8.74998V26.25C30.25 27.0521 29.981 27.7389 29.4429 28.3106C28.9039 28.8813 28.2563 29.1666 27.5 29.1666H5.5ZM16.5 18.9583L5.5 11.6666V26.25H27.5V11.6666L16.5 18.9583ZM16.5 16.0416L27.5 8.74998H5.5L16.5 16.0416ZM5.5 11.6666V8.74998V26.25V11.6666Z" fill="white"/>
</svg>
