<svg width="28" height="32" viewBox="0 0 28 32" fill="none" xmlns="http://www.w3.org/2000/svg">
<g clip-path="url(#clip0_59_333)">
<path d="M9.26471 6.3844H16.2647C17.193 6.3844 18.0832 6.80534 18.7396 7.55462C19.396 8.30389 19.7647 9.32013 19.7647 10.3798V15.7069H18.598V10.3798C18.598 9.67334 18.3522 8.99585 17.9146 8.49633C17.477 7.99681 16.8835 7.71619 16.2647 7.71619H9.26471C8.64587 7.71619 8.05238 7.99681 7.61479 8.49633C7.17721 8.99585 6.93138 9.67334 6.93138 10.3798V27.693C6.93138 28.3995 7.17721 29.0769 7.61479 29.5765C8.05238 30.076 8.64587 30.3566 9.26471 30.3566H16.2647C16.8835 30.3566 17.477 30.076 17.9146 29.5765C18.3522 29.0769 18.598 28.3995 18.598 27.693V22.3659H19.7647V27.693C19.7647 28.7527 19.396 29.7689 18.7396 30.5182C18.0832 31.2675 17.193 31.6884 16.2647 31.6884H9.26471C8.33645 31.6884 7.44621 31.2675 6.78984 30.5182C6.13346 29.7689 5.76471 28.7527 5.76471 27.693V10.3798C5.76471 9.32013 6.13346 8.30389 6.78984 7.55462C7.44621 6.80534 8.33645 6.3844 9.26471 6.3844ZM12.7647 18.3705H25.8897L22.098 14.0422L22.868 13.0433L28.118 19.0364L22.868 25.0295L22.098 24.0306L25.8897 19.7023H12.7647V18.3705Z" fill="white"/>
</g>
<defs>
<clipPath id="clip0_59_333">
<rect width="28" height="31.9629" fill="white" transform="translate(0 -0.00817871)"/>
</clipPath>
</defs>
</svg>
