<svg width="27" height="27" viewBox="0 0 27 27" fill="none" xmlns="http://www.w3.org/2000/svg">
<path d="M13.5 2.53125C11.3306 2.53125 9.2099 3.17456 7.40609 4.37982C5.60229 5.58508 4.1964 7.29816 3.3662 9.30244C2.536 11.3067 2.31878 13.5122 2.74202 15.6399C3.16525 17.7676 4.20992 19.7221 5.74393 21.2561C7.27794 22.7901 9.23238 23.8348 11.3601 24.258C13.4878 24.6812 15.6933 24.464 17.6976 23.6338C19.7018 22.8036 21.4149 21.3977 22.6202 19.5939C23.8255 17.7901 24.4688 15.6694 24.4688 13.5C24.4657 10.5918 23.3091 7.80369 21.2527 5.74731C19.1963 3.69094 16.4082 2.53432 13.5 2.53125ZM13.5 22.7813C11.6643 22.7813 9.86991 22.2369 8.34362 21.2171C6.81733 20.1972 5.62772 18.7477 4.92525 17.0518C4.22277 15.3559 4.03897 13.4897 4.39709 11.6893C4.75521 9.88893 5.63916 8.23517 6.93717 6.93717C8.23518 5.63916 9.88894 4.75521 11.6893 4.39709C13.4897 4.03897 15.3559 4.22277 17.0518 4.92524C18.7477 5.62772 20.1972 6.81732 21.2171 8.34361C22.2369 9.86991 22.7813 11.6643 22.7813 13.5C22.7785 15.9607 21.7997 18.3198 20.0598 20.0598C18.3198 21.7997 15.9607 22.7785 13.5 22.7813ZM20.25 13.5C20.25 13.7238 20.1611 13.9384 20.0029 14.0966C19.8446 14.2549 19.63 14.3438 19.4063 14.3438H13.5C13.2762 14.3438 13.0616 14.2549 12.9034 14.0966C12.7452 13.9384 12.6563 13.7238 12.6563 13.5V7.59375C12.6563 7.36997 12.7452 7.15536 12.9034 6.99713C13.0616 6.8389 13.2762 6.75 13.5 6.75C13.7238 6.75 13.9384 6.8389 14.0966 6.99713C14.2549 7.15536 14.3438 7.36997 14.3438 7.59375V12.6563H19.4063C19.63 12.6563 19.8446 12.7451 20.0029 12.9034C20.1611 13.0616 20.25 13.2762 20.25 13.5Z" fill="#EB1010" fill-opacity="0.65"/>
</svg>
