<svg width="20" height="19" viewBox="0 0 20 19" fill="none" xmlns="http://www.w3.org/2000/svg">
<path d="M17 1.82781H15V0.913907C15 0.671524 14.8946 0.439068 14.7071 0.267677C14.5196 0.0962863 14.2652 0 14 0C13.7348 0 13.4804 0.0962863 13.2929 0.267677C13.1054 0.439068 13 0.671524 13 0.913907V1.82781H7V0.913907C7 0.671524 6.89464 0.439068 6.70711 0.267677C6.51957 0.0962863 6.26522 0 6 0C5.73478 0 5.48043 0.0962863 5.29289 0.267677C5.10536 0.439068 5 0.671524 5 0.913907V1.82781H3C2.20435 1.82781 1.44129 2.11667 0.87868 2.63085C0.316071 3.14502 0 3.84239 0 4.56954V15.5364C0 16.2636 0.316071 16.9609 0.87868 17.4751C1.44129 17.9893 2.20435 18.2781 3 18.2781H17C17.7956 18.2781 18.5587 17.9893 19.1213 17.4751C19.6839 16.9609 20 16.2636 20 15.5364V4.56954C20 3.84239 19.6839 3.14502 19.1213 2.63085C18.5587 2.11667 17.7956 1.82781 17 1.82781ZM18 15.5364C18 15.7788 17.8946 16.0113 17.7071 16.1827C17.5196 16.354 17.2652 16.4503 17 16.4503H3C2.73478 16.4503 2.48043 16.354 2.29289 16.1827C2.10536 16.0113 2 15.7788 2 15.5364V9.13907H18V15.5364ZM18 7.31126H2V4.56954C2 4.32715 2.10536 4.0947 2.29289 3.92331C2.48043 3.75192 2.73478 3.65563 3 3.65563H5V4.56954C5 4.81192 5.10536 5.04437 5.29289 5.21577C5.48043 5.38716 5.73478 5.48344 6 5.48344C6.26522 5.48344 6.51957 5.38716 6.70711 5.21577C6.89464 5.04437 7 4.81192 7 4.56954V3.65563H13V4.56954C13 4.81192 13.1054 5.04437 13.2929 5.21577C13.4804 5.38716 13.7348 5.48344 14 5.48344C14.2652 5.48344 14.5196 5.38716 14.7071 5.21577C14.8946 5.04437 15 4.81192 15 4.56954V3.65563H17C17.2652 3.65563 17.5196 3.75192 17.7071 3.92331C17.8946 4.0947 18 4.32715 18 4.56954V7.31126Z" fill="#D2AD2C"/>
</svg>
