<svg width="36" height="37" viewBox="0 0 36 37" fill="none" xmlns="http://www.w3.org/2000/svg">
<g clip-path="url(#clip0_59_295)">
<path d="M33.71 17.4942L18.71 2.51153C18.5226 2.32549 18.2692 2.22107 18.005 2.22107C17.7408 2.22107 17.4874 2.32549 17.3 2.51153L2.3 17.4942C2.13617 17.6852 2.05056 17.931 2.06029 18.1824C2.07001 18.4338 2.17434 18.6723 2.35243 18.8501C2.53053 19.028 2.76927 19.1322 3.02094 19.142C3.27262 19.1517 3.5187 19.0662 3.71 18.9025L18 4.62907L32.29 18.9125C32.4813 19.0761 32.7274 19.1617 32.979 19.1519C33.2307 19.1422 33.4695 19.038 33.6476 18.8601C33.8257 18.6822 33.93 18.4438 33.9397 18.1924C33.9494 17.941 33.8638 17.6952 33.7 17.5041L33.71 17.4942Z" fill="white"/>
<path d="M28 32.187H23V22.1986H13V32.187H8V18.2032L6 20.2009V32.187C6 32.7168 6.21071 33.2249 6.58579 33.5996C6.96086 33.9742 7.46957 34.1847 8 34.1847H15V24.1963H21V34.1847H28C28.5304 34.1847 29.0391 33.9742 29.4142 33.5996C29.7893 33.2249 30 32.7168 30 32.187V19.9612L28 17.9635V32.187Z" fill="white"/>
</g>
<defs>
<clipPath id="clip0_59_295">
<rect width="36" height="35.9583" fill="white" transform="translate(0 0.224121)"/>
</clipPath>
</defs>
</svg>
