<svg width="23" height="33" viewBox="0 0 23 33" fill="none" xmlns="http://www.w3.org/2000/svg">
<path d="M11.3333 24.6667C10.5819 24.6667 9.86122 24.3418 9.32986 23.7636C8.79851 23.1853 8.5 22.4011 8.5 21.5833C8.5 19.8721 9.76083 18.5 11.3333 18.5C12.0848 18.5 12.8054 18.8249 13.3368 19.4031C13.8682 19.9813 14.1667 20.7656 14.1667 21.5833C14.1667 22.4011 13.8682 23.1853 13.3368 23.7636C12.8054 24.3418 12.0848 24.6667 11.3333 24.6667ZM19.8333 29.2917V13.875H2.83333V29.2917H19.8333ZM19.8333 10.7917C20.5848 10.7917 21.3054 11.1165 21.8368 11.6948C22.3682 12.273 22.6667 13.0572 22.6667 13.875V29.2917C22.6667 30.1094 22.3682 30.8937 21.8368 31.4719C21.3054 32.0501 20.5848 32.375 19.8333 32.375H2.83333C2.08189 32.375 1.36122 32.0501 0.829864 31.4719C0.298511 30.8937 0 30.1094 0 29.2917V13.875C0 12.1637 1.26083 10.7917 2.83333 10.7917H4.25V7.70833C4.25 5.66396 4.99628 3.70331 6.32466 2.25772C7.65304 0.812126 9.45472 0 11.3333 0C12.2635 0 13.1846 0.199382 14.044 0.586762C14.9034 0.974142 15.6843 1.54193 16.342 2.25772C16.9998 2.9735 17.5215 3.82326 17.8775 4.75848C18.2335 5.6937 18.4167 6.69606 18.4167 7.70833V10.7917H19.8333ZM11.3333 3.08333C10.2062 3.08333 9.12516 3.57061 8.32813 4.43796C7.5311 5.30532 7.08333 6.48171 7.08333 7.70833V10.7917H15.5833V7.70833C15.5833 6.48171 15.1356 5.30532 14.3385 4.43796C13.5415 3.57061 12.4605 3.08333 11.3333 3.08333Z" fill="white"/>
</svg>
