<svg width="40" height="40" viewBox="0 0 40 40" fill="none" xmlns="http://www.w3.org/2000/svg">
<g clip-path="url(#clip0_112_1335)">
<path fill-rule="evenodd" clip-rule="evenodd" d="M40 20C40 14.6957 37.8929 9.60859 34.1421 5.85786C30.3914 2.10714 25.3043 0 20 0C14.6957 0 9.60859 2.10714 5.85786 5.85786C2.10714 9.60859 0 14.6957 0 20C0 25.3043 2.10714 30.3914 5.85786 34.1421C9.60859 37.8929 14.6957 40 20 40C25.3043 40 30.3914 37.8929 34.1421 34.1421C37.8929 30.3914 40 25.3043 40 20ZM14.2686 10.9314C13.6728 10.9224 13.0789 11.0004 12.5057 11.1629C11.8267 11.3392 11.1736 11.6033 10.5629 11.9486C9.92286 12.32 9.35714 12.7914 8.91143 13.2371C8.48857 13.6657 8.07714 14.1686 7.83143 14.6514C7.7172 14.8607 7.64603 15.0907 7.62211 15.3279C7.5982 15.5651 7.62203 15.8047 7.6922 16.0326C7.76236 16.2604 7.87744 16.4719 8.03065 16.6546C8.18386 16.8372 8.3721 16.9874 8.58426 17.0961C8.79642 17.2049 9.02822 17.2701 9.26597 17.2878C9.50371 17.3055 9.74261 17.2755 9.96856 17.1994C10.1945 17.1233 10.4029 17.0028 10.5816 16.8449C10.7602 16.687 10.9054 16.4949 11.0086 16.28C11.1392 16.0919 11.2855 15.9151 11.4457 15.7514C11.7171 15.48 12.0371 15.2229 12.3486 15.0429C12.8267 14.7754 13.3495 14.5973 13.8914 14.5171C14.0229 14.5 14.0886 14.5 14.0943 14.5C14.3286 14.5114 14.5629 14.4766 14.7837 14.3975C15.0046 14.3184 15.2077 14.1966 15.3815 14.039C15.5553 13.8814 15.6963 13.6911 15.7965 13.479C15.8968 13.2669 15.9543 13.0372 15.9657 12.8029C15.9772 12.5685 15.9423 12.3343 15.8632 12.1134C15.7841 11.8925 15.6623 11.6894 15.5047 11.5157C15.3471 11.3419 15.1569 11.2008 14.9448 11.1006C14.7327 11.0004 14.5029 10.9429 14.2686 10.9314ZM13.3429 27.6971C13.2821 27.9241 13.1772 28.1369 13.0342 28.3234C12.8911 28.5099 12.7128 28.6663 12.5093 28.7839C12.3058 28.9014 12.0811 28.9777 11.8482 29.0084C11.6152 29.0391 11.3784 29.0236 11.1514 28.9629C10.9244 28.9021 10.7116 28.7972 10.5252 28.6542C10.3387 28.5111 10.1822 28.3328 10.0647 28.1293C9.94718 27.9258 9.87088 27.7011 9.84017 27.4682C9.80945 27.2352 9.82493 26.9984 9.88571 26.7714C10.4844 24.5476 11.7995 22.5831 13.6274 21.1822C15.4554 19.7813 17.6941 19.0221 19.9971 19.0221C22.3002 19.0221 24.5389 19.7813 26.3669 21.1822C28.1948 22.5831 29.5099 24.5476 30.1086 26.7714C30.1695 26.9981 30.1853 27.2345 30.1549 27.4672C30.1245 27.6999 30.0486 27.9243 29.9314 28.1277C29.8143 28.331 29.6582 28.5093 29.4722 28.6524C29.2862 28.7954 29.0738 28.9005 28.8471 28.9614C28.6205 29.0224 28.3841 29.0381 28.1514 29.0077C27.9187 28.9773 27.6943 28.9014 27.4909 28.7843C27.0802 28.5477 26.7803 28.1577 26.6571 27.7C26.2609 26.237 25.3939 24.9452 24.1901 24.0241C22.9864 23.1031 21.5129 22.604 19.9971 22.604C18.4814 22.604 17.0079 23.1031 15.8041 24.0241C14.6004 24.9452 13.7334 26.237 13.3371 27.7L13.3429 27.6971ZM26.1086 14.5171C25.98 14.5 25.9143 14.5 25.9086 14.5C25.4354 14.5235 24.9722 14.358 24.621 14.04C24.2697 13.722 24.0592 13.2775 24.0357 12.8043C24.0122 12.3311 24.1777 11.8679 24.4957 11.5167C24.8137 11.1654 25.2582 10.9549 25.7314 10.9314C26.2743 10.9057 26.9143 11.0086 27.4971 11.1629C28.1057 11.3229 28.7971 11.58 29.44 11.9486C30.08 12.32 30.6457 12.7914 31.0886 13.2371C31.5171 13.6657 31.9229 14.1686 32.1743 14.6514C32.2812 14.8602 32.346 15.088 32.3649 15.3219C32.3838 15.5557 32.3564 15.791 32.2844 16.0142C32.2123 16.2375 32.097 16.4444 31.9451 16.6231C31.7931 16.8018 31.6074 16.9488 31.3986 17.0557C30.9769 17.2717 30.4867 17.3113 30.0358 17.1658C29.5849 17.0203 29.2102 16.7017 28.9943 16.28C28.8634 16.0921 28.7172 15.9153 28.5571 15.7514C28.2867 15.4775 27.9823 15.2394 27.6514 15.0429C27.1733 14.7754 26.6505 14.5973 26.1086 14.5171Z" fill="black"/>
<path fill-rule="evenodd" clip-rule="evenodd" d="M40 20C40 14.6957 37.8929 9.60859 34.1421 5.85786C30.3914 2.10714 25.3043 0 20 0C14.6957 0 9.60859 2.10714 5.85786 5.85786C2.10714 9.60859 0 14.6957 0 20C0 25.3043 2.10714 30.3914 5.85786 34.1421C9.60859 37.8929 14.6957 40 20 40C25.3043 40 30.3914 37.8929 34.1421 34.1421C37.8929 30.3914 40 25.3043 40 20ZM14.2686 10.9314C13.6728 10.9224 13.0789 11.0004 12.5057 11.1629C11.8267 11.3392 11.1736 11.6033 10.5629 11.9486C9.92286 12.32 9.35714 12.7914 8.91143 13.2371C8.48857 13.6657 8.07714 14.1686 7.83143 14.6514C7.7172 14.8607 7.64603 15.0907 7.62211 15.3279C7.5982 15.5651 7.62203 15.8047 7.6922 16.0326C7.76236 16.2604 7.87744 16.4719 8.03065 16.6546C8.18386 16.8372 8.3721 16.9874 8.58426 17.0961C8.79642 17.2049 9.02822 17.2701 9.26597 17.2878C9.50371 17.3055 9.74261 17.2755 9.96856 17.1994C10.1945 17.1233 10.4029 17.0028 10.5816 16.8449C10.7602 16.687 10.9054 16.4949 11.0086 16.28C11.1392 16.0919 11.2855 15.9151 11.4457 15.7514C11.7171 15.48 12.0371 15.2229 12.3486 15.0429C12.8267 14.7754 13.3495 14.5973 13.8914 14.5171C14.0229 14.5 14.0886 14.5 14.0943 14.5C14.3286 14.5114 14.5629 14.4766 14.7837 14.3975C15.0046 14.3184 15.2077 14.1966 15.3815 14.039C15.5553 13.8814 15.6963 13.6911 15.7965 13.479C15.8968 13.2669 15.9543 13.0372 15.9657 12.8029C15.9772 12.5685 15.9423 12.3343 15.8632 12.1134C15.7841 11.8925 15.6623 11.6894 15.5047 11.5157C15.3471 11.3419 15.1569 11.2008 14.9448 11.1006C14.7327 11.0004 14.5029 10.9429 14.2686 10.9314ZM13.3429 27.6971C13.2821 27.9241 13.1772 28.1369 13.0342 28.3234C12.8911 28.5099 12.7128 28.6663 12.5093 28.7839C12.3058 28.9014 12.0811 28.9777 11.8482 29.0084C11.6152 29.0391 11.3784 29.0236 11.1514 28.9629C10.9244 28.9021 10.7116 28.7972 10.5252 28.6542C10.3387 28.5111 10.1822 28.3328 10.0647 28.1293C9.94718 27.9258 9.87088 27.7011 9.84017 27.4682C9.80945 27.2352 9.82493 26.9984 9.88571 26.7714C10.4844 24.5476 11.7995 22.5831 13.6274 21.1822C15.4554 19.7813 17.6941 19.0221 19.9971 19.0221C22.3002 19.0221 24.5389 19.7813 26.3669 21.1822C28.1948 22.5831 29.5099 24.5476 30.1086 26.7714C30.1695 26.9981 30.1853 27.2345 30.1549 27.4672C30.1245 27.6999 30.0486 27.9243 29.9314 28.1277C29.8143 28.331 29.6582 28.5093 29.4722 28.6524C29.2862 28.7954 29.0738 28.9005 28.8471 28.9614C28.6205 29.0224 28.3841 29.0381 28.1514 29.0077C27.9187 28.9773 27.6943 28.9014 27.4909 28.7843C27.0802 28.5477 26.7803 28.1577 26.6571 27.7C26.2609 26.237 25.3939 24.9452 24.1901 24.0241C22.9864 23.1031 21.5129 22.604 19.9971 22.604C18.4814 22.604 17.0079 23.1031 15.8041 24.0241C14.6004 24.9452 13.7334 26.237 13.3371 27.7L13.3429 27.6971ZM26.1086 14.5171C25.98 14.5 25.9143 14.5 25.9086 14.5C25.4354 14.5235 24.9722 14.358 24.621 14.04C24.2697 13.722 24.0592 13.2775 24.0357 12.8043C24.0122 12.3311 24.1777 11.8679 24.4957 11.5167C24.8137 11.1654 25.2582 10.9549 25.7314 10.9314C26.2743 10.9057 26.9143 11.0086 27.4971 11.1629C28.1057 11.3229 28.7971 11.58 29.44 11.9486C30.08 12.32 30.6457 12.7914 31.0886 13.2371C31.5171 13.6657 31.9229 14.1686 32.1743 14.6514C32.2812 14.8602 32.346 15.088 32.3649 15.3219C32.3838 15.5557 32.3564 15.791 32.2844 16.0142C32.2123 16.2375 32.097 16.4444 31.9451 16.6231C31.7931 16.8018 31.6074 16.9488 31.3986 17.0557C30.9769 17.2717 30.4867 17.3113 30.0358 17.1658C29.5849 17.0203 29.2102 16.7017 28.9943 16.28C28.8634 16.0921 28.7172 15.9153 28.5571 15.7514C28.2867 15.4775 27.9823 15.2394 27.6514 15.0429C27.1733 14.7754 26.6505 14.5973 26.1086 14.5171Z" fill="#E70B0B"/>
</g>
<defs>
<clipPath id="clip0_112_1335">
<rect width="40" height="40" fill="white"/>
</clipPath>
</defs>
</svg>
