<svg width="40" height="40" viewBox="0 0 40 40" fill="none" xmlns="http://www.w3.org/2000/svg">
<path d="M20 0C16.0444 0 12.1776 1.17298 8.8886 3.37061C5.59962 5.56823 3.03617 8.69181 1.52242 12.3463C0.00866568 16.0008 -0.387401 20.0222 0.384303 23.9018C1.15601 27.7814 3.06082 31.3451 5.85787 34.1421C8.65492 36.9392 12.2186 38.844 16.0982 39.6157C19.9778 40.3874 23.9991 39.9913 27.6537 38.4776C31.3082 36.9638 34.4318 34.4004 36.6294 31.1114C38.827 27.8224 40 23.9556 40 20C39.9944 14.6974 37.8855 9.61356 34.136 5.86405C30.3864 2.11453 25.3026 0.00559965 20 0ZM13.0769 13.8462C13.5333 13.8462 13.9795 13.9815 14.359 14.2351C14.7385 14.4886 15.0343 14.8491 15.209 15.2707C15.3836 15.6924 15.4293 16.1564 15.3403 16.6041C15.2512 17.0517 15.0315 17.4629 14.7087 17.7856C14.386 18.1084 13.9748 18.3281 13.5271 18.4172C13.0795 18.5062 12.6155 18.4605 12.1938 18.2859C11.7721 18.1112 11.4117 17.8154 11.1582 17.4359C10.9046 17.0564 10.7692 16.6103 10.7692 16.1538C10.7692 15.5418 11.0124 14.9548 11.4451 14.5221C11.8779 14.0893 12.4649 13.8462 13.0769 13.8462ZM28.4615 30.5615C28.1085 30.7652 27.6891 30.8204 27.2954 30.7151C26.9017 30.6099 26.5658 30.3527 26.3615 30C24.925 27.5173 22.6673 26.1538 20 26.1538C17.3327 26.1538 15.075 27.5192 13.6385 30C13.5423 30.1838 13.4099 30.3463 13.2493 30.4777C13.0887 30.6091 12.9032 30.7066 12.7039 30.7644C12.5046 30.8222 12.2957 30.8391 12.0897 30.8141C11.8838 30.7891 11.685 30.7227 11.5053 30.6188C11.3257 30.515 11.1689 30.3759 11.0444 30.2099C10.92 30.0439 10.8303 29.8544 10.781 29.6529C10.7316 29.4514 10.7235 29.2419 10.7572 29.0372C10.7909 28.8324 10.6697 29.828 10.781 29.6529C12.7598 26.2317 16.2442 23.0769 20 23.0769C23.7558 23.0769 27.1978 26.2046 29.1767 29.6277C29.282 29.234 29.3803 29.9807 29.1767 29.6277C29.0714 30.0214 28.8142 30.3573 28.4615 30.5615ZM26.9231 18.4615C26.4667 18.4615 26.0205 18.3262 25.641 18.0726C25.2615 17.819 24.9657 17.4586 24.7911 17.037C24.6164 16.6153 24.5707 16.1513 24.6597 15.7036C24.7488 15.256 24.9686 14.8448 25.2913 14.5221C25.614 14.1993 26.0252 13.9795 26.4729 13.8905C26.9205 13.8014 27.3845 13.8471 27.8062 14.0218C28.2279 14.1965 28.5883 14.4923 28.8419 14.8718C29.0954 15.2513 29.2308 15.6974 29.2308 16.1538C29.2308 16.7659 28.9876 17.3529 28.5549 17.7856C28.1221 18.2184 27.5351 18.4615 26.9231 18.4615Z" fill="#DA582F"/>
</svg>
