<svg width="40" height="40" viewBox="0 0 40 40" fill="none" xmlns="http://www.w3.org/2000/svg">
<path d="M20 0C16.0444 0 12.1776 1.17298 8.8886 3.37061C5.59962 5.56823 3.03617 8.69181 1.52242 12.3463C0.00866568 16.0009 -0.387401 20.0222 0.384303 23.9018C1.15601 27.7814 3.06082 31.3451 5.85787 34.1421C8.65492 36.9392 12.2186 38.844 16.0982 39.6157C19.9778 40.3874 23.9991 39.9913 27.6537 38.4776C31.3082 36.9638 34.4318 34.4004 36.6294 31.1114C38.827 27.8224 40 23.9556 40 20C39.9934 14.6977 37.8841 9.61446 34.1348 5.86517C30.3855 2.11588 25.3023 0.00661548 20 0ZM13.0769 13.8462C13.5333 13.8462 13.9795 13.9815 14.359 14.2351C14.7385 14.4886 15.0343 14.8491 15.209 15.2707C15.3836 15.6924 15.4293 16.1564 15.3403 16.6041C15.2512 17.0517 15.0314 17.4629 14.7087 17.7856C14.386 18.1084 13.9748 18.3282 13.5271 18.4172C13.0795 18.5062 12.6155 18.4605 12.1938 18.2859C11.7721 18.1112 11.4117 17.8154 11.1582 17.4359C10.9046 17.0564 10.7692 16.6103 10.7692 16.1538C10.7692 15.5418 11.0124 14.9548 11.4451 14.5221C11.8779 14.0893 12.4649 13.8462 13.0769 13.8462ZM27.6923 27.6923H12.3077C11.8997 27.6923 11.5084 27.5302 11.2198 27.2417C10.9313 26.9532 10.7692 26.5619 10.7692 26.1538C10.7692 25.7458 10.9313 25.3545 11.2198 25.066C11.5084 24.7775 11.8997 24.6154 12.3077 24.6154H27.6923C28.1003 24.6154 28.4916 24.7775 28.7802 25.066C29.0687 25.3545 29.2308 25.7458 29.2308 26.1538C29.2308 26.5619 29.0687 26.9532 28.7802 27.2417C28.4916 27.5302 28.1003 27.6923 27.6923 27.6923ZM26.9231 18.4615C26.4667 18.4615 26.0205 18.3262 25.641 18.0726C25.2615 17.819 24.9657 17.4586 24.7911 17.037C24.6164 16.6153 24.5707 16.1513 24.6597 15.7036C24.7488 15.256 24.9686 14.8448 25.2913 14.5221C25.614 14.1993 26.0252 13.9795 26.4729 13.8905C26.9205 13.8015 27.3845 13.8472 27.8062 14.0218C28.2279 14.1965 28.5883 14.4923 28.8419 14.8718C29.0954 15.2513 29.2308 15.6974 29.2308 16.1538C29.2308 16.7659 28.9876 17.3529 28.5549 17.7856C28.1221 18.2184 27.5351 18.4615 26.9231 18.4615Z" fill="#4D2CD2"/>
</svg>
