<svg width="40" height="40" viewBox="0 0 40 40" fill="none" xmlns="http://www.w3.org/2000/svg">
<path d="M20 0C16.0444 0 12.1776 1.17298 8.8886 3.37061C5.59962 5.56823 3.03617 8.69181 1.52242 12.3463C0.00866567 16.0009 -0.387401 20.0222 0.384303 23.9018C1.15601 27.7814 3.06082 31.3451 5.85787 34.1421C8.65492 36.9392 12.2186 38.844 16.0982 39.6157C19.9778 40.3874 23.9991 39.9913 27.6537 38.4776C31.3082 36.9638 34.4318 34.4004 36.6294 31.1114C38.827 27.8224 40 23.9556 40 20C39.9944 14.6974 37.8855 9.61356 34.1359 5.86405C30.3864 2.11453 25.3026 0.00559965 20 0ZM13.0769 13.8462C13.5333 13.8462 13.9795 13.9815 14.359 14.2351C14.7385 14.4886 15.0343 14.8491 15.209 15.2707C15.3836 15.6924 15.4293 16.1564 15.3403 16.6041C15.2512 17.0517 15.0314 17.4629 14.7087 17.7856C14.386 18.1084 13.9748 18.3282 13.5271 18.4172C13.0795 18.5062 12.6155 18.4605 12.1938 18.2859C11.7721 18.1112 11.4117 17.8154 11.1582 17.4359C10.9046 17.0564 10.7692 16.6103 10.7692 16.1538C10.7692 15.5418 11.0124 14.9548 11.4451 14.5221C11.8779 14.0893 12.4649 13.8462 13.0769 13.8462ZM29.0231 25.3846C27.0442 28.8058 23.7558 30.7692 20 30.7692C16.2442 30.7692 12.9558 28.8077 10.9769 25.3846C10.8656 25.2095 10.7909 25.0137 10.7572 24.809C10.7235 24.6042 10.7316 24.3948 10.781 24.1932C10.8303 23.9917 10.92 23.8022 11.0444 23.6362C11.1689 23.4703 11.3257 23.3312 11.5053 23.2273C11.685 23.1235 11.8838 23.0571 12.0897 23.032C12.2957 23.007 12.5046 23.0239 12.7039 23.0817C12.9032 23.1395 13.0887 23.2371 13.2493 23.3684C13.4099 23.4998 13.5423 23.6623 13.6385 23.8462C15.075 26.3288 17.3327 27.6923 20 27.6923C22.6673 27.6923 24.925 26.3269 26.3615 23.8462C26.4577 23.6623 26.5901 23.4998 26.7507 23.3684C26.9113 23.2371 27.0968 23.1395 27.2961 23.0817C27.4954 23.0239 27.7043 23.007 27.9103 23.032C28.1162 23.0571 28.315 23.1235 28.4947 23.2273C28.6743 23.3312 28.8311 23.4703 28.9556 23.6362C29.08 23.8022 29.1697 23.9917 29.219 24.1932C29.2684 24.3948 29.2765 24.6042 29.2428 24.809C29.2091 25.0137 29.1344 25.2095 29.0231 25.3846ZM26.9231 18.4615C26.4667 18.4615 26.0205 18.3262 25.641 18.0726C25.2615 17.819 24.9657 17.4586 24.7911 17.037C24.6164 16.6153 24.5707 16.1513 24.6597 15.7036C24.7488 15.256 24.9686 14.8448 25.2913 14.5221C25.614 14.1993 26.0252 13.9795 26.4729 13.8905C26.9205 13.8015 27.3845 13.8472 27.8062 14.0218C28.2279 14.1965 28.5883 14.4923 28.8419 14.8718C29.0954 15.2513 29.2308 15.6974 29.2308 16.1538C29.2308 16.7659 28.9876 17.3529 28.5549 17.7856C28.1221 18.2184 27.5351 18.4615 26.9231 18.4615Z" fill="#3BC2B2"/>
</svg>
