<svg width="40" height="40" viewBox="0 0 40 40" fill="none" xmlns="http://www.w3.org/2000/svg">
<path d="M20 0C17.3736 0 14.7728 0.517315 12.3463 1.52241C9.91982 2.5275 7.71504 4.00069 5.85786 5.85786C2.10714 9.60859 0 14.6957 0 20C0 25.3043 2.10714 30.3914 5.85786 34.1421C7.71504 35.9993 9.91982 37.4725 12.3463 38.4776C14.7728 39.4827 17.3736 40 20 40C25.3043 40 30.3914 37.8929 34.1421 34.1421C37.8929 30.3914 40 25.3043 40 20C40 17.3736 39.4827 14.7728 38.4776 12.3463C37.4725 9.91982 35.9993 7.71504 34.1421 5.85786C32.285 4.00069 30.0802 2.5275 27.6537 1.52241C25.2272 0.517315 22.6264 0 20 0ZM10 15C10 13.4 11.4 12 13 12C14.6 12 16 13.4 16 15C16 16.6 14.6 18 13 18C11.4 18 10 16.6 10 15ZM20 30.46C16.5 30.46 13.42 29 11.62 26.84C12.52 28.28 17.5 26.46 20 26.46C22.5 26.46 27.48 28.28 28.38 26.84C26.58 29 23.5 30.46 20 30.46ZM27 18C25.4 18 24 16.6 24 15C24 13.4 25.4 12 27 12C28.6 12 30 13.4 30 15C30 16.6 28.6 18 27 18Z" fill="#0F69BD"/>
</svg>
