<svg width="40" height="40" viewBox="0 0 40 40" fill="none" xmlns="http://www.w3.org/2000/svg">
<path d="M20 0C16.0444 0 12.1776 1.17298 8.8886 3.37061C5.59962 5.56823 3.03617 8.69181 1.52242 12.3463C0.00866568 16.0008 -0.387401 20.0222 0.384303 23.9018C1.15601 27.7814 3.06082 31.3451 5.85787 34.1421C8.65492 36.9392 12.2186 38.844 16.0982 39.6157C19.9778 40.3874 23.9991 39.9913 27.6537 38.4776C31.3082 36.9638 34.4318 34.4004 36.6294 31.1114C38.827 27.8224 40 23.9556 40 20C39.9944 14.6974 37.8855 9.61356 34.136 5.86405C30.3864 2.11453 25.3026 0.00559965 20 0ZM10.7692 22.3077C10.7692 21.8513 10.9046 21.4051 11.1582 21.0256C11.4117 20.6461 11.7721 20.3503 12.1938 20.1757C12.6155 20.001 13.0795 19.9553 13.5271 20.0443C13.9748 20.1334 14.386 20.3532 14.7087 20.6759C15.0315 20.9986 15.2512 21.4098 15.3403 21.8575C15.4293 22.3051 15.3836 22.7691 15.209 23.1908C15.0343 23.6125 14.7385 23.9729 14.359 24.2265C13.9795 24.48 13.5333 24.6154 13.0769 24.6154C12.4649 24.6154 11.8779 24.3722 11.4451 23.9395C11.0124 23.5067 10.7692 22.9197 10.7692 22.3077ZM25.8962 31.6211C25.6702 31.9608 25.3185 32.1968 24.9186 32.2772C24.5187 32.3576 24.1032 32.2759 23.7635 32.05C22.5135 31.2192 21.5385 30.7692 20 30.7692C18.4615 30.7692 17.4865 31.2192 16.2365 32.05C15.8968 32.2675 15.4853 32.3429 15.0905 32.2599C14.6958 32.177 14.3494 31.9423 14.126 31.6064C13.9026 31.2705 13.8201 30.8604 13.8961 30.4642C13.9722 30.0681 14.2008 29.7177 14.5327 29.4885C16.1539 28.4096 17.7039 27.6923 20 27.6923C22.2962 27.6923 23.8462 28.4096 25.4673 29.4885C25.8069 29.7144 26.0429 30.0661 26.1233 30.466C26.2038 30.8659 26.122 31.2814 25.8962 31.6211ZM26.9231 24.6154C26.4667 24.6154 26.0205 24.48 25.641 24.2265C25.2615 23.9729 24.9657 23.6125 24.7911 23.1908C24.6164 22.7691 24.5707 22.3051 24.6597 21.8575C24.7488 21.4098 24.9686 20.9986 25.2913 20.6759C25.614 20.3532 26.0252 20.1334 26.4729 20.0443C26.9205 19.9553 27.3845 20.001 27.8062 20.1757C28.2279 20.3503 28.5883 20.6461 28.8419 21.0256C29.0954 21.4051 29.2308 21.8513 29.2308 22.3077C29.2308 22.9197 28.9876 23.5067 28.5549 23.9395C28.1221 24.3722 27.5351 24.6154 26.9231 24.6154ZM30.0846 13.5885L20.8539 19.7423C20.601 19.911 20.3039 20.001 20 20.001C19.6961 20.001 19.399 19.911 19.1462 19.7423L9.91539 13.5885C9.7472 13.4763 9.60274 13.3322 9.49026 13.1642C9.37778 12.9963 9.29948 12.8078 9.25984 12.6096C9.22019 12.4114 9.21998 12.2073 9.25921 12.009C9.29844 11.8107 9.37634 11.622 9.48847 11.4538C9.71492 11.1142 10.067 10.8784 10.4674 10.7983C10.6656 10.7586 10.8697 10.7584 11.068 10.7977C11.2663 10.8369 11.4549 10.9148 11.6231 11.0269L20 16.6135L28.3769 11.0365C28.5451 10.9244 28.7337 10.8465 28.932 10.8073C29.1303 10.768 29.3344 10.7683 29.5327 10.8079C29.7309 10.8475 29.9193 10.9258 30.0873 11.0383C30.2553 11.1508 30.3994 11.2953 30.5115 11.4635C30.6237 11.6317 30.7016 11.8203 30.7408 12.0186C30.78 12.2169 30.7798 12.421 30.7402 12.6192C30.7005 12.8174 30.6222 13.0059 30.5098 13.1738C30.3973 13.3418 30.2528 13.4859 30.0846 13.5981V13.5885Z" fill="#F12B2B"/>
</svg>
