<svg width="41" height="40" viewBox="0 0 41 40" fill="none" xmlns="http://www.w3.org/2000/svg">
<path d="M20.1154 0C17.4738 0 14.8581 0.517315 12.4176 1.52241C9.97706 2.5275 7.75956 4.00069 5.89167 5.85786C2.1193 9.60859 0 14.6957 0 20C0 25.3043 2.1193 30.3914 5.89167 34.1421C7.75956 35.9993 9.97706 37.4725 12.4176 38.4776C14.8581 39.4827 17.4738 40 20.1154 40C25.4503 40 30.5668 37.8929 34.3391 34.1421C38.1115 30.3914 40.2308 25.3043 40.2308 20C40.2308 17.3736 39.7105 14.7728 38.6996 12.3463C37.6887 9.91982 36.207 7.71504 34.3391 5.85786C32.4713 4.00069 30.2538 2.5275 27.8132 1.52241C25.3727 0.517315 22.757 0 20.1154 0ZM10.0577 15C10.0577 13.4 11.4658 12 13.075 12C14.6842 12 16.0923 13.4 16.0923 15C16.0923 16.6 14.6842 18 13.075 18C11.4658 18 10.0577 16.6 10.0577 15ZM25.6874 30.46C24.7822 29 22.6298 28 20.1154 28C17.601 28 15.4486 29 14.5434 30.46L11.6871 27.62C13.4974 25.44 16.5952 24 20.1154 24C23.6356 24 26.7334 25.44 28.5438 27.62L25.6874 30.46ZM27.1558 18C25.5466 18 24.1385 16.6 24.1385 15C24.1385 13.4 25.5466 12 27.1558 12C28.765 12 30.1731 13.4 30.1731 15C30.1731 16.6 28.765 18 27.1558 18Z" fill="#A43DF4"/>
</svg>
