<svg width="40" height="40" viewBox="0 0 40 40" fill="none" xmlns="http://www.w3.org/2000/svg">
<path d="M20 0C16.0444 0 12.1776 1.17298 8.8886 3.37061C5.59962 5.56824 3.03617 8.69181 1.52242 12.3463C0.00866568 16.0009 -0.387401 20.0222 0.384303 23.9018C1.15601 27.7814 3.06082 31.3451 5.85787 34.1421C8.65492 36.9392 12.2186 38.844 16.0982 39.6157C19.9778 40.3874 23.9991 39.9913 27.6537 38.4776C31.3082 36.9638 34.4318 34.4004 36.6294 31.1114C38.827 27.8224 40 23.9556 40 20C39.9944 14.6974 37.8855 9.61356 34.136 5.86405C30.3864 2.11453 25.3026 0.00559965 20 0ZM26.9231 13.8462C27.3795 13.8462 27.8257 13.9815 28.2052 14.2351C28.5847 14.4886 28.8804 14.8491 29.0551 15.2707C29.2298 15.6924 29.2755 16.1564 29.1864 16.6041C29.0974 17.0517 28.8776 17.4629 28.5549 17.7856C28.2321 18.1084 27.8209 18.3282 27.3733 18.4172C26.9256 18.5062 26.4616 18.4605 26.04 18.2859C25.6183 18.1112 25.2579 17.8154 25.0043 17.4359C24.7507 17.0564 24.6154 16.6103 24.6154 16.1538C24.6154 15.5418 24.8585 14.9548 25.2913 14.5221C25.7241 14.0893 26.311 13.8462 26.9231 13.8462ZM13.0769 13.8462C13.5333 13.8462 13.9795 13.9815 14.359 14.2351C14.7385 14.4886 15.0343 14.8491 15.209 15.2707C15.3836 15.6924 15.4293 16.1564 15.3403 16.6041C15.2512 17.0517 15.0315 17.4629 14.7087 17.7856C14.386 18.1084 13.9748 18.3282 13.5271 18.4172C13.0795 18.5062 12.6155 18.4605 12.1938 18.2859C11.7721 18.1112 11.4117 17.8154 11.1582 17.4359C10.9046 17.0564 10.7692 16.6103 10.7692 16.1538C10.7692 15.5418 11.0124 14.9548 11.4451 14.5221C11.8779 14.0893 12.4649 13.8462 13.0769 13.8462ZM29.2308 29.2308C27.3077 29.2308 26.3365 27.9346 25.6923 27.0769C25.1154 26.3077 24.9385 26.1538 24.6154 26.1538C24.2923 26.1538 24.1212 26.3 23.5385 27.0769C22.8942 27.9346 21.9231 29.2308 20 29.2308C18.0769 29.2308 17.1154 27.9346 16.4615 27.0769C15.8846 26.3077 15.7077 26.1538 15.3846 26.1538C15.0615 26.1538 14.8904 26.3 14.3077 27.0769C13.6635 27.9346 12.6923 29.2308 10.7692 29.2308C10.3612 29.2308 9.9699 29.0687 9.68138 28.7802C9.39286 28.4916 9.23078 28.1003 9.23078 27.6923C9.23078 27.2843 9.39286 26.893 9.68138 26.6044C9.9699 26.3159 10.3612 26.1538 10.7692 26.1538C11.0923 26.1538 11.2635 26.0077 11.8462 25.2308C12.5 24.3731 13.4615 23.0769 15.3846 23.0769C17.3077 23.0769 18.2692 24.3731 18.9231 25.2308C19.5 26 19.6769 26.1538 20 26.1538C20.3231 26.1538 20.4942 26.0077 21.0769 25.2308C21.7308 24.3731 22.6923 23.0769 24.6154 23.0769C26.5385 23.0769 27.5096 24.3731 28.1538 25.2308C28.7308 26 28.9077 26.1538 29.2308 26.1538C29.6388 26.1538 30.0301 26.3159 30.3186 26.6044C30.6071 26.893 30.7692 27.2843 30.7692 27.6923C30.7692 28.1003 30.6071 28.4916 30.3186 28.7802C30.0301 29.0687 29.6388 29.2308 29.2308 29.2308Z" fill="#9747FF"/>
</svg>
